# xmcd
#
# Track frame offsets:
#	150
#	16350
#	30000
#	44025
#	61650
#	75975
#	89775
#	103575
#	117675
#	132300
#	146700
#	161775
#	176700
#	190800
#	206325
#	220275
#	234675
#
# Disc length: 3342 seconds
#
# Revision: 1
# Processed by: cddbd v1.5.1PL2 Copyright (c) Steve Scherf et al.
# Submitted via: CDmax 2.0
#
DISCID=f20d0c11
DTITLE=Dupla Kávé - Szerenád
DYEAR=2005
DGENRE=Blues
TTITLE0=Szerenád
TTITLE1=Szeretlek, kedvesem
TTITLE2=Egy szál harangvirág
TTITLE3=Álomország
TTITLE4=Elmentél
TTITLE5=Kár összeveszni velem
TTITLE6=Emlékedhez láncolva
TTITLE7=Ugye, szeretsz még?
TTITLE8=Távolodom
TTITLE9=Jöjj el hozzám
TTITLE10=Csak azért szeretem a mesét
TTITLE11=A szó elszáll
TTITLE12=Csak tavasz ne jönne sohasem
TTITLE13=A farkas
TTITLE14=Itélj el!
TTITLE15=A rózsák könnyesek
TTITLE16=+ bonus: Szerenád
EXTD=
EXTT0=
EXTT1=
EXTT2=
EXTT3=
EXTT4=
EXTT5=
EXTT6=
EXTT7=
EXTT8=
EXTT9=
EXTT10=
EXTT11=
EXTT12=
EXTT13=
EXTT14=
EXTT15=
EXTT16=
PLAYORDER=
